<?xml version="1.0" ?><svg xmlns="http://www.w3.org/2000/svg" version="1.2" viewBox="0 0 1024 1024" width="512" height="512" opacity="0.8">
	<title>Vallia</title>
	<style>
		.s0 { fill: #000000 } 
		.s1 { fill: #ff7800 } 
	</style>
	<g>
		<path class="s0" d="m844.5 256.5c2.4 2.3 2.5 2.9 2.5 16.8 0 13.1-0.2 14.7-2.1 17.1-2.6 3.3-7.9 3.6-10.9 0.6-1.8-1.8-2-3.3-2-17.4v-15.5l2.6-2c3.5-2.8 6.9-2.6 9.9 0.4zm44.8 53.7c1.6 1.9 1.7 9 1.7 118.5v116.4l-2.5 2.4c-3.1 3.2-6.9 3.2-10 0l-2.5-2.4v-116c0-63.8 0.3-116.7 0.6-117.6 0.9-2.2 6.3-4.6 8.9-3.9 1.1 0.3 2.8 1.5 3.8 2.6zm-44.4 30.7c1.2 1.2 2.2 4 2.6 7.3 0.3 2.9 0.5 36.2 0.3 73.9-0.3 73.9-0.1 70.9-5.5 73-2.8 1-8-0.7-9.3-3.1-0.6-1.2-1-29.4-1-75.4 0-72.3 0-73.6 2-75.6 2.6-2.6 8.3-2.7 10.9-0.1zm-43.8 62.4c0.9 0.7 2.1 2.2 2.7 3.4 1.6 3 1.7 48.2 0.1 51.7-2.6 5.5-10.7 5.7-14 0.2-1.7-2.8-1.9-5.1-1.8-22.1 0.1-24.2 0.8-30.2 3.8-32.6 2.6-2.2 6.8-2.4 9.2-0.6zm25.3 190.8c2.4 1.9 2.6 2.6 2.6 10.3 0 12.2 0.2 12.1-21.5 12.1-21.7 0-21.5 0.1-21.5-12.1 0-7.7 0.2-8.4 2.6-10.3 2.5-1.9 4-2.1 18.9-2.1 14.9 0 16.4 0.2 18.9 2.1zm-37.3 90.8c2.6 2.7 2.9 3.6 2.9 9.6 0 5.7-0.3 6.9-2.5 9-2.4 2.5-2.7 2.5-19.2 2.5-17.5-0.1-18.8-0.3-21.1-4.7-1.8-3.2-1.5-12.4 0.4-15.1 2.5-3.6 4.8-4.1 21.2-4.1l15.4-0.1z"/>
		<path id="Layer copy 2" class="s0" d="m507 764.4l6.1-1.3c22.3-4.6 43-18 54.5-35.2 2.4-3.7 4.4-7.2 4.4-7.8 0-0.6-2.4 0.8-5.3 3.2-7.3 6-16.3 11.3-23.8 14.1-7.4 2.8-28.2 7.6-32.8 7.6h-3.1m1.9-42c1 0 6.1-1.5 11.2-3.2l9.4-3.3 28.5-0.1c19.1 0 30.8-0.4 35.3-1.3 3.8-0.7 8.9-1.1 11.3-0.8 2.6 0.2 5 0 6-0.7 1.5-1.1 1.5-1.5 0-5.1-3.1-7.3-3.6-7.5-15-6.9-11.7 0.7-16-0.4-37.6-10-21.3-9.4-30.8-10.6-42.4-5.3-3.1 1.4-5.6 2.3-5.6 1.9 0.1-0.4 0.7-3.4 1.5-6.7 0.9-3.8 1.5-11.4 1.5-20.8 0-15.9 0.9-19.6 6.2-24.3 5.2-4.8 8.7-5.8 23.3-6.3 11.7-0.5 14.6-0.9 17.5-2.7 10.7-6.2 11.9-25.8 2.4-40.2-4-6.1-5.1-6.7-2.8-1.5 6.1 13.7 4.6 29-3.2 35.2-3.4 2.7-4.8 2.7-4.1-0.1 2.2-8.3-11.8-10.3-27.8-3.9-4.4 1.8-10.1 3.5-12.7 3.8l-4.8 0.6"/>
		<path id="Layer copy" class="s1" d="m544 98.6c46.1 6 90.7 21.6 124.5 43.5 57.5 37.4 92.7 96.5 98.4 165.2 3 35.7-0.4 184.2-4.3 190.6-1.4 2.2-12.2 6.9-18.2 8-3.2 0.6-15.8 1.3-27.9 1.7-24.5 0.7-27.3 1.4-29.9 6.9-2 4.1-2.2 20.8-0.3 24.4 0.6 1.3 2.5 3.4 4 4.5 2.7 2 3.9 2.1 19 1.8 19.2-0.3 29-1.5 40-4.7 4.5-1.3 8.3-2.3 8.4-2.2 0.1 0.2-0.5 5-1.4 10.7-1.7 11.6-3 13.7-9.6 17.2-6 3-17.7 5.6-28.9 6.4-9.4 0.7-10.5 0.9-13 3.5-2.6 2.6-2.8 3.3-2.8 11.4 0 12.7 2 15.4 11.3 15.5 5.9 0 21.7-3 28.9-5.6 2.3-0.8 4.3-1.3 4.5-1.1 0.1 0.2-1.5 6.9-3.7 14.8-18.8 68.8-50.9 126.6-96 173.3-17.9 18.5-46.5 41.3-68.5 54.6-21.6 13-38.4 18.3-67.2 21.4l-4.3 0.4v-48.2-48.2l6.1-1.3c22.3-4.6 43-18 54.5-35.2 2.4-3.7 4.4-7.2 4.4-7.8 0-0.6-2.4 0.8-5.3 3.2-7.3 6-16.3 11.3-23.8 14.1-7.4 2.8-28.2 7.6-32.8 7.6h-3.1v-21c0-19.8 0.1-21 1.9-21 1 0 6.1-1.5 11.2-3.2l9.4-3.3 28.5-0.1c19.1 0 30.8-0.4 35.3-1.3 3.8-0.7 8.9-1.1 11.3-0.8 2.6 0.2 5 0 6-0.7 1.5-1.1 1.5-1.5 0-5.1-3.1-7.3-3.6-7.5-15-6.9-11.7 0.7-16-0.4-37.6-10-21.3-9.4-30.8-10.6-42.4-5.3-3.1 1.4-5.6 2.3-5.6 1.9 0.1-0.4 0.7-3.4 1.5-6.7 0.9-3.8 1.5-11.4 1.5-20.8 0-15.9 0.9-19.6 6.2-24.3 5.2-4.8 8.7-5.8 23.3-6.3 11.7-0.5 14.6-0.9 17.5-2.7 10.7-6.2 11.9-25.8 2.4-40.2-4-6.1-5.1-6.7-2.8-1.5 6.1 13.7 4.6 29-3.2 35.2-3.4 2.7-4.8 2.7-4.1-0.1 2.2-8.3-11.8-10.3-27.8-3.9-4.4 1.8-10.1 3.5-12.7 3.8l-4.8 0.6v-252.8-252.8l12.8 0.7c7 0.4 17.9 1.4 24.2 2.2z"/>
		<path class="s0" d="m638 329.7c-41.9 4.5-77.4 26.8-93.2 58.8-5.3 10.6-8.2 20.6-10.2 34.7-0.2 2.1-0.3 3.8-0.1 3.8 0.2 0 1.5-2.5 2.9-5.5 12.8-27.9 42.6-53.1 76.4-64.4 19.6-6.5 45.2-9.9 62.8-8.2 23.4 2.3 47.9 13.4 65.2 29.5l6.5 6.1-2.3-4.5c-8.2-16.2-23.2-30.5-41.5-39.7-17.3-8.8-44.1-13-66.5-10.6z"/>
		<path class="s0" d="m628.4 394c-17.3 4.5-34.6 17.5-46.1 34.5-4.2 6.3-8.3 13.8-8.3 15.3 0 0.5 2.6 0 5.8-1.1 7.5-2.5 18.8-1.9 29.3 1.6 14.8 5 23 6.2 41.9 6.1 14.8 0 19-0.4 27-2.4 16.6-4 29.3-10.4 40.4-20.1 2.5-2.2 4.6-4.5 4.6-5.1 0-2.3-18.5-15.1-29.4-20.2-21.1-9.9-47.1-13.4-65.2-8.6z"/>
		<path class="s0" d="m652.5 575.5c-2.3 2.2-2.5 3.1-2.5 12.5 0 10 0.1 10.2 3 13.2l3 3 12.1-0.4c11.8-0.3 12.1-0.4 14.5-3.1 2.2-2.5 2.4-3.7 2.4-12.3 0-9.2-0.1-9.7-2.9-12.5-2.9-2.9-3-2.9-15.1-2.9-11.5 0-12.2 0.1-14.5 2.5z"/>
	</g>
</svg>
