<?xml version="1.0" encoding="UTF-8" standalone="no"?>
<svg
   viewBox="0 0 390 760"
   class="vallia-logo"
   version="1.1"
   id="svg1"
   width="380"
   height="740"
   xmlns="http://www.w3.org/2000/svg"
   xmlns:svg="http://www.w3.org/2000/svg"
   xmlns:rdf="http://www.w3.org/1999/02/22-rdf-syntax-ns#"
   xmlns:cc="http://creativecommons.org/ns#"
   xmlns:dc="http://purl.org/dc/elements/1.1/">
  <defs
     id="defs1" />
  <title
     id="title1">Vallia Glitch Pulse</title>
  <style
     id="style1">
				.s0 { fill: #ff7800; } 
				.s1 { fill: #000000; } 
				#vallia-glitch {
				  transform-origin: center;
				}
				.eye-blink {
				  transform-origin: center center;
				  transform-box: fill-box;
				  animation: blink 6s infinite;
				}

				@keyframes blink {
				  0%, 100%   { transform: scaleY(1); }
				  48%        { transform: scaleY(1); }
				  49%, 51%   { transform: scaleY(0.1); }
				  52%        { transform: scaleY(1); }
				}
				
				.signal {
				  transform-origin: center center;
				  transform-box: fill-box; /* důležité pro SVG prvky */
				  animation: signal 3s infinite ease-in-out;
				}

				@keyframes signal {
				  0%, 100% {
					transform: scaleY(1) scaleX(1);
				  }
				  20% {
					transform: scaleY(0.98) scaleX(1.05);
				  }
				  40% {
					transform: scaleY(1.02) scaleX(0.95);
				  }
				  60% {
					transform: scaleY(0.98) scaleX(1.05);
				  }
				  80% {
					transform: scaleY(1) scaleX(1);
				  }
				}
				


			  </style>
  <g
     id="vallia-glitch"
     transform="matrix(0.9576984,0,0,0.9576984,-485.55309,-91.651736)">

    <!-- Mini-glitch každých 15s (posun a rotace) -->
    <animateTransform
       attributeName="transform"
       type="translate"
       values="0 0;8 -6;-10 4;6 -8;-3 6;0 0"
       keyTimes="0;0.1;0.2;0.3;0.4;1"
       dur="0.3s"
       begin="15s;30s;45s"
       repeatCount="1"
       additive="sum" />
    <animateTransform
       attributeName="transform"
       type="rotate"
       values="0;4;-3;5;-2;0"
       keyTimes="0;0.1;0.2;0.3;0.4;1"
       dur="0.3s"
       begin="15s;30s;45s"
       repeatCount="1"
       additive="sum" />
    <!-- Původní cesty z tvého SVG -->
    <path
       id="Layer5"
       class="s0"
       d="m 544,98.6 c 46.1,6 90.7,21.6 124.5,43.5 57.5,37.4 92.7,96.5 98.4,165.2 3,35.7 -0.4,184.2 -4.3,190.6 -1.4,2.2 -12.2,6.9 -18.2,8 -3.2,0.6 -15.8,1.3 -27.9,1.7 -24.5,0.7 -27.3,1.4 -29.9,6.9 -2,4.1 -2.2,20.8 -0.3,24.4 0.6,1.3 2.5,3.4 4,4.5 2.7,2 3.9,2.1 19,1.8 19.2,-0.3 29,-1.5 40,-4.7 4.5,-1.3 8.3,-2.3 8.4,-2.2 0.1,0.2 -0.5,5 -1.4,10.7 -1.7,11.6 -3,13.7 -9.6,17.2 -6,3 -17.7,5.6 -28.9,6.4 -9.4,0.7 -10.5,0.9 -13,3.5 -2.6,2.6 -2.8,3.3 -2.8,11.4 0,12.7 2,15.4 11.3,15.5 5.9,0 21.7,-3 28.9,-5.6 2.3,-0.8 4.3,-1.3 4.5,-1.1 0.1,0.2 -1.5,6.9 -3.7,14.8 -18.8,68.8 -50.9,126.6 -96,173.3 -17.9,18.5 -46.5,41.3 -68.5,54.6 -21.6,13 -38.4,18.3 -67.2,21.4 l -4.3,0.4 v -48.2 -48.2 l 6.1,-1.3 c 22.3,-4.6 43,-18 54.5,-35.2 2.4,-3.7 4.4,-7.2 4.4,-7.8 0,-0.6 -2.4,0.8 -5.3,3.2 -7.3,6 -16.3,11.3 -23.8,14.1 -7.4,2.8 -28.2,7.6 -32.8,7.6 H 507 v -21 c 0,-19.8 0.1,-21 1.9,-21 1,0 6.1,-1.5 11.2,-3.2 l 9.4,-3.3 28.5,-0.1 c 19.1,0 30.8,-0.4 35.3,-1.3 3.8,-0.7 8.9,-1.1 11.3,-0.8 2.6,0.2 5,0 6,-0.7 1.5,-1.1 1.5,-1.5 0,-5.1 -3.1,-7.3 -3.6,-7.5 -15,-6.9 -11.7,0.7 -16,-0.4 -37.6,-10 -21.3,-9.4 -30.8,-10.6 -42.4,-5.3 -3.1,1.4 -5.6,2.3 -5.6,1.9 0.1,-0.4 0.7,-3.4 1.5,-6.7 0.9,-3.8 1.5,-11.4 1.5,-20.8 0,-15.9 0.9,-19.6 6.2,-24.3 5.2,-4.8 8.7,-5.8 23.3,-6.3 11.7,-0.5 14.6,-0.9 17.5,-2.7 10.7,-6.2 11.9,-25.8 2.4,-40.2 -4,-6.1 -5.1,-6.7 -2.8,-1.5 6.1,13.7 4.6,29 -3.2,35.2 -3.4,2.7 -4.8,2.7 -4.1,-0.1 2.2,-8.3 -11.8,-10.3 -27.8,-3.9 -4.4,1.8 -10.1,3.5 -12.7,3.8 l -4.8,0.6 V 348.5 95.7 l 12.8,0.7 c 7,0.4 17.9,1.4 24.2,2.2 z" />
    <path
       id="Layer4"
       class="s1"
       d="m 507,764.4 6.1,-1.3 c 22.3,-4.6 43,-18 54.5,-35.2 2.4,-3.7 4.4,-7.2 4.4,-7.8 0,-0.6 -2.4,0.8 -5.3,3.2 -7.3,6 -16.3,11.3 -23.8,14.1 -7.4,2.8 -28.2,7.6 -32.8,7.6 H 507 m 1.9,-42 c 1,0 6.1,-1.5 11.2,-3.2 l 9.4,-3.3 28.5,-0.1 c 19.1,0 30.8,-0.4 35.3,-1.3 3.8,-0.7 8.9,-1.1 11.3,-0.8 2.6,0.2 5,0 6,-0.7 1.5,-1.1 1.5,-1.5 0,-5.1 -3.1,-7.3 -3.6,-7.5 -15,-6.9 -11.7,0.7 -16,-0.4 -37.6,-10 -21.3,-9.4 -30.8,-10.6 -42.4,-5.3 -3.1,1.4 -5.6,2.3 -5.6,1.9 0.1,-0.4 0.7,-3.4 1.5,-6.7 0.9,-3.8 1.5,-11.4 1.5,-20.8 0,-15.9 0.9,-19.6 6.2,-24.3 5.2,-4.8 8.7,-5.8 23.3,-6.3 11.7,-0.5 14.6,-0.9 17.5,-2.7 10.7,-6.2 11.9,-25.8 2.4,-40.2 -4,-6.1 -5.1,-6.7 -2.8,-1.5 6.1,13.7 4.6,29 -3.2,35.2 -3.4,2.7 -4.8,2.7 -4.1,-0.1 2.2,-8.3 -11.8,-10.3 -27.8,-3.9 -4.4,1.8 -10.1,3.5 -12.7,3.8 l -4.8,0.6" />
    <path
       id="Layer3"
       class="s1 signal "
       d="m 844.5,256.5 c 2.4,2.3 2.5,2.9 2.5,16.8 0,13.1 -0.2,14.7 -2.1,17.1 -2.6,3.3 -7.9,3.6 -10.9,0.6 -1.8,-1.8 -2,-3.3 -2,-17.4 v -15.5 l 2.6,-2 c 3.5,-2.8 6.9,-2.6 9.9,0.4 z m 44.8,53.7 c 1.6,1.9 1.7,9 1.7,118.5 v 116.4 l -2.5,2.4 c -3.1,3.2 -6.9,3.2 -10,0 l -2.5,-2.4 v -116 c 0,-63.8 0.3,-116.7 0.6,-117.6 0.9,-2.2 6.3,-4.6 8.9,-3.9 1.1,0.3 2.8,1.5 3.8,2.6 z m -44.4,30.7 c 1.2,1.2 2.2,4 2.6,7.3 0.3,2.9 0.5,36.2 0.3,73.9 -0.3,73.9 -0.1,70.9 -5.5,73 -2.8,1 -8,-0.7 -9.3,-3.1 -0.6,-1.2 -1,-29.4 -1,-75.4 0,-72.3 0,-73.6 2,-75.6 2.6,-2.6 8.3,-2.7 10.9,-0.1 z m -43.8,62.4 c 0.9,0.7 2.1,2.2 2.7,3.4 1.6,3 1.7,48.2 0.1,51.7 -2.6,5.5 -10.7,5.7 -14,0.2 -1.7,-2.8 -1.9,-5.1 -1.8,-22.1 0.1,-24.2 0.8,-30.2 3.8,-32.6 2.6,-2.2 6.8,-2.4 9.2,-0.6 z m 25.3,190.8 c 2.4,1.9 2.6,2.6 2.6,10.3 0,12.2 0.2,12.1 -21.5,12.1 -21.7,0 -21.5,0.1 -21.5,-12.1 0,-7.7 0.2,-8.4 2.6,-10.3 2.5,-1.9 4,-2.1 18.9,-2.1 14.9,0 16.4,0.2 18.9,2.1 z m -37.3,90.8 c 2.6,2.7 2.9,3.6 2.9,9.6 0,5.7 -0.3,6.9 -2.5,9 -2.4,2.5 -2.7,2.5 -19.2,2.5 -17.5,-0.1 -18.8,-0.3 -21.1,-4.7 -1.8,-3.2 -1.5,-12.4 0.4,-15.1 2.5,-3.6 4.8,-4.1 21.2,-4.1 l 15.4,-0.1 z" />
    <path
       id="Layer2"
       class="s1"
       d="m 638,329.7 c -41.9,4.5 -77.4,26.8 -93.2,58.8 -5.3,10.6 -8.2,20.6 -10.2,34.7 -0.2,2.1 -0.3,3.8 -0.1,3.8 0.2,0 1.5,-2.5 2.9,-5.5 12.8,-27.9 42.6,-53.1 76.4,-64.4 19.6,-6.5 45.2,-9.9 62.8,-8.2 23.4,2.3 47.9,13.4 65.2,29.5 l 6.5,6.1 -2.3,-4.5 c -8.2,-16.2 -23.2,-30.5 -41.5,-39.7 -17.3,-8.8 -44.1,-13 -66.5,-10.6 z" />
    <path
       id="Layer1"
       class="s1 eye-blink"
       d="m 628.4,394 c -17.3,4.5 -34.6,17.5 -46.1,34.5 -4.2,6.3 -8.3,13.8 -8.3,15.3 0,0.5 2.6,0 5.8,-1.1 7.5,-2.5 18.8,-1.9 29.3,1.6 14.8,5 23,6.2 41.9,6.1 14.8,0 19,-0.4 27,-2.4 16.6,-4 29.3,-10.4 40.4,-20.1 2.5,-2.2 4.6,-4.5 4.6,-5.1 0,-2.3 -18.5,-15.1 -29.4,-20.2 -21.1,-9.9 -47.1,-13.4 -65.2,-8.6 z" />
    <path
       class="s1"
       d="m 652.5,575.5 c -2.3,2.2 -2.5,3.1 -2.5,12.5 0,10 0.1,10.2 3,13.2 l 3,3 12.1,-0.4 c 11.8,-0.3 12.1,-0.4 14.5,-3.1 2.2,-2.5 2.4,-3.7 2.4,-12.3 0,-9.2 -0.1,-9.7 -2.9,-12.5 -2.9,-2.9 -3,-2.9 -15.1,-2.9 -11.5,0 -12.2,0.1 -14.5,2.5 z"
       id="path1" />
  </g>
  <metadata
     id="metadata1">
    <rdf:RDF>
      <cc:Work
         rdf:about="">
        <dc:title>Vallia Glitch Pulse</dc:title>
      </cc:Work>
    </rdf:RDF>
  </metadata>
</svg>
